<?xml version="1.0" encoding="UTF-8"?>
<svg xmlns="http://www.w3.org/2000/svg" xmlns:xlink="http://www.w3.org/1999/xlink" width="40px" height="40px" viewBox="0 0 40 40" version="1.1">
<g id="surface1">
<path style=" stroke:none;fill-rule:nonzero;fill:rgb(100%,100%,100%);fill-opacity:1;" d="M 34.777344 20.394531 C 34.785156 17.984375 33.324219 15.828125 31.136719 15.011719 C 31.847656 11.234375 29.921875 7.449219 26.507812 5.921875 C 23.09375 4.394531 19.109375 5.53125 16.9375 8.65625 C 15.449219 7.46875 13.382812 7.441406 11.871094 8.59375 C 10.355469 9.742188 9.765625 11.792969 10.417969 13.609375 C 8.222656 14.4375 6.753906 16.59375 6.742188 19.011719 C 6.734375 21.433594 8.203125 23.597656 10.40625 24.414062 C 10.3125 24.925781 10.265625 25.449219 10.265625 25.96875 C 10.261719 29.523438 12.480469 32.667969 15.746094 33.753906 C 19.011719 34.839844 22.585938 33.621094 24.582031 30.734375 C 26.066406 31.917969 28.128906 31.945312 29.636719 30.800781 C 31.152344 29.65625 31.75 27.617188 31.105469 25.796875 C 33.300781 24.96875 34.765625 22.8125 34.777344 20.394531 "/>
<path style=" stroke:none;fill-rule:nonzero;fill:rgb(99.607843%,77.254903%,7.843138%);fill-opacity:1;" d="M 17.761719 17.699219 L 23.898438 20.597656 L 30.089844 14.988281 C 30.179688 14.527344 30.226562 14.054688 30.222656 13.582031 C 30.226562 10.445312 28.25 7.671875 25.351562 6.746094 C 22.453125 5.816406 19.308594 6.949219 17.597656 9.535156 L 16.566406 15.0625 Z M 17.761719 17.699219 "/>
<path style=" stroke:none;fill-rule:nonzero;fill:rgb(0%,74.901962%,70.19608%);fill-opacity:1;" d="M 11.414062 24.417969 C 11.320312 24.890625 11.273438 25.367188 11.273438 25.847656 C 11.273438 29 13.257812 31.78125 16.167969 32.707031 C 19.078125 33.632812 22.234375 32.488281 23.945312 29.882812 L 24.96875 24.371094 L 23.605469 21.679688 L 17.445312 18.777344 Z M 11.414062 24.417969 "/>
<path style=" stroke:none;fill-rule:nonzero;fill:rgb(94.117647%,30.588236%,59.607846%);fill-opacity:1;" d="M 11.375 13.4375 L 15.578125 14.464844 L 16.503906 9.519531 C 15.328125 8.601562 13.710938 8.59375 12.523438 9.5 C 11.34375 10.402344 10.875 12.003906 11.375 13.433594 "/>
<path style=" stroke:none;fill-rule:nonzero;fill:rgb(10.588235%,66.274512%,96.078432%);fill-opacity:1;" d="M 11.007812 14.472656 C 9.144531 15.105469 7.871094 16.890625 7.824219 18.917969 C 7.78125 20.945312 8.972656 22.785156 10.804688 23.511719 L 16.707031 18 L 15.621094 15.609375 Z M 11.007812 14.472656 "/>
<path style=" stroke:none;fill-rule:nonzero;fill:rgb(57.647061%,78.823531%,5.490196%);fill-opacity:1;" d="M 25.03125 29.882812 C 25.605469 30.339844 26.308594 30.589844 27.03125 30.589844 C 28.113281 30.585938 29.128906 30.039062 29.75 29.117188 C 30.367188 28.199219 30.515625 27.027344 30.144531 25.972656 L 25.9375 24.957031 Z M 25.03125 29.882812 "/>
<path style=" stroke:none;fill-rule:nonzero;fill:rgb(0%,46.666667%,80.000001%);fill-opacity:1;" d="M 25.882812 23.820312 L 30.511719 24.9375 C 32.40625 24.277344 33.683594 22.449219 33.695312 20.382812 C 33.695312 18.394531 32.507812 16.613281 30.707031 15.910156 L 24.65625 21.390625 Z M 25.882812 23.820312 "/>
<path style=" stroke:none;fill-rule:evenodd;fill:rgb(0%,45.490196%,74.117649%);fill-opacity:1;" d="M 17.847656 25.136719 C 17.847656 25.136719 16.925781 25.710938 18.507812 25.90625 C 20.425781 26.140625 21.402344 26.109375 23.515625 25.679688 C 23.515625 25.679688 24.070312 26.054688 24.847656 26.375 C 20.113281 28.554688 14.132812 26.25 17.847656 25.136719 Z M 17.847656 25.136719 "/>
<path style=" stroke:none;fill-rule:evenodd;fill:rgb(0%,45.490196%,74.117649%);fill-opacity:1;" d="M 17.269531 22.292969 C 17.269531 22.292969 16.234375 23.117188 17.816406 23.292969 C 19.863281 23.519531 21.480469 23.539062 24.277344 22.960938 C 24.277344 22.960938 24.664062 23.382812 25.273438 23.609375 C 19.550781 25.40625 13.175781 23.753906 17.269531 22.292969 Z M 17.269531 22.292969 "/>
<path style=" stroke:none;fill-rule:evenodd;fill:rgb(91.764706%,17.647059%,18.039216%);fill-opacity:1;" d="M 22.148438 17.472656 C 23.316406 18.914062 21.839844 20.210938 21.839844 20.210938 C 21.839844 20.210938 24.804688 18.570312 23.441406 16.515625 C 22.171875 14.597656 21.199219 13.648438 26.472656 10.363281 C 26.472656 10.363281 18.195312 12.582031 22.148438 17.472656 Z M 22.148438 17.472656 "/>
<path style=" stroke:none;fill-rule:evenodd;fill:rgb(0%,45.490196%,74.117649%);fill-opacity:1;" d="M 28.410156 27.238281 C 28.410156 27.238281 29.09375 27.84375 27.65625 28.308594 C 24.921875 29.199219 16.28125 29.464844 13.882812 28.34375 C 13.019531 27.941406 14.636719 27.382812 15.148438 27.265625 C 15.675781 27.140625 15.980469 27.164062 15.980469 27.164062 C 15.019531 26.441406 9.777344 28.589844 13.316406 29.207031 C 22.96875 30.886719 30.914062 28.449219 28.410156 27.238281 Z M 28.410156 27.238281 "/>
<path style=" stroke:none;fill-rule:evenodd;fill:rgb(0%,45.490196%,74.117649%);fill-opacity:1;" d="M 18.292969 19.347656 C 18.292969 19.347656 13.898438 20.46875 16.738281 20.878906 C 17.9375 21.050781 20.324219 21.007812 22.550781 20.808594 C 24.371094 20.644531 26.195312 20.292969 26.195312 20.292969 C 26.195312 20.292969 25.554688 20.589844 25.089844 20.929688 C 20.628906 22.191406 12.007812 21.601562 14.488281 20.316406 C 16.585938 19.226562 18.292969 19.347656 18.292969 19.347656 Z M 18.292969 19.347656 "/>
<path style=" stroke:none;fill-rule:evenodd;fill:rgb(0%,45.490196%,74.117649%);fill-opacity:1;" d="M 26.179688 24.078125 C 30.714844 21.550781 28.617188 19.117188 27.152344 19.445312 C 26.796875 19.523438 26.632812 19.59375 26.632812 19.59375 C 26.632812 19.59375 26.769531 19.371094 27.023438 19.273438 C 29.917969 18.179688 32.144531 22.496094 26.085938 24.207031 C 26.085938 24.207031 26.15625 24.140625 26.179688 24.078125 Z M 26.179688 24.078125 "/>
<path style=" stroke:none;fill-rule:evenodd;fill:rgb(91.764706%,17.647059%,18.039216%);fill-opacity:1;" d="M 23.441406 5.0625 C 23.441406 5.0625 25.957031 7.761719 21.058594 11.90625 C 17.132812 15.238281 20.164062 17.132812 21.058594 19.300781 C 18.765625 17.082031 17.085938 15.128906 18.210938 13.308594 C 19.867188 10.640625 24.457031 9.347656 23.441406 5.0625 Z M 23.441406 5.0625 "/>
<path style=" stroke:none;fill-rule:evenodd;fill:rgb(0%,45.490196%,74.117649%);fill-opacity:1;" d="M 18.738281 30.9375 C 23.09375 31.234375 29.78125 30.769531 29.941406 28.558594 C 29.941406 28.558594 29.636719 29.398438 26.34375 30.0625 C 22.625 30.8125 18.039062 30.726562 15.320312 30.246094 C 15.320312 30.246094 15.878906 30.738281 18.738281 30.9375 Z M 18.738281 30.9375 "/>
</g>
</svg>
